<?xml version="1.0" encoding="UTF-8"?>
<svg width="24px" height="24px" viewBox="0 0 24 24" version="1.1" xmlns="http://www.w3.org/2000/svg">
  <g stroke="none" stroke-width="1" fill="none" fill-rule="evenodd">
    <path d="M21,6H3V4h18V6z M17,2H7v2h10V2z" fill="#FF9800"/>
    <path d="M21,7H3v11c0,1.1,0.9,2,2,2h14c1.1,0,2-0.9,2-2V7z M12,17.5L6.5,12H10v-2h4v2h3.5L12,17.5z" fill="#FF9800"/>
    <path d="M14,10v2h3.5L12,17.5L6.5,12H10v-2H14 M16,8h-8v2H4l8,8l8-8h-4V8L16,8z" fill="#FFFFFF"/>
  </g>
</svg>