<?xml version="1.0" encoding="UTF-8"?>
<svg width="32px" height="32px" viewBox="0 0 32 32" version="1.1" xmlns="http://www.w3.org/2000/svg">
    <g stroke="none" stroke-width="1" fill="none" fill-rule="evenodd">
        <rect fill="#FF6B00" x="10" y="2" width="12" height="6" rx="1"></rect>
        <path d="M8,8 L24,8 L24,20 C24,24.418 20.418,28 16,28 C11.582,28 8,24.418 8,20 L8,8 Z" fill="#FF6B00" opacity="0.2"></path>
        <circle fill="#FF6B00" cx="16" cy="16" r="5"></circle>
        <path d="M8,8 L24,8 L24,20 C24,24.418 20.418,28 16,28 C11.582,28 8,24.418 8,20 L8,8 Z" stroke="#FF6B00" stroke-width="2"></path>
        <rect stroke="#FF6B00" stroke-width="2" x="10" y="2" width="12" height="6" rx="1"></rect>
        <line x1="12" y1="12" x2="12" y2="18" stroke="#FF6B00" stroke-width="2" stroke-linecap="round"></line>
        <line x1="16" y1="12" x2="16" y2="18" stroke="#FF6B00" stroke-width="2" stroke-linecap="round"></line>
        <line x1="20" y1="12" x2="20" y2="18" stroke="#FF6B00" stroke-width="2" stroke-linecap="round"></line>
    </g>
</svg>