<?xml version="1.0" encoding="UTF-8"?>
<svg width="32px" height="32px" viewBox="0 0 32 32" version="1.1" xmlns="http://www.w3.org/2000/svg">
    <g stroke="none" stroke-width="1" fill="none" fill-rule="evenodd">
        <circle fill="#1A75FF" cx="16" cy="16" r="16" opacity="0.2"></circle>
        <circle fill="#1A75FF" cx="16" cy="16" r="6"></circle>
        <path d="M16,2 C8.268,2 2,8.268 2,16 C2,23.732 8.268,30 16,30 C23.732,30 30,23.732 30,16 C30,8.268 23.732,2 16,2 Z M16,4 C22.627,4 28,9.373 28,16 C28,22.627 22.627,28 16,28 C9.373,28 4,22.627 4,16 C4,9.373 9.373,4 16,4 Z" fill="#1A75FF"></path>
        <path d="M16,10 L18,16 L22,16 L19,19 L20,24 L16,22 L12,24 L13,19 L10,16 L14,16 Z" fill="#1A75FF"></path>
    </g>
</svg>