<?xml version="1.0" encoding="UTF-8"?>
<svg xmlns="http://www.w3.org/2000/svg" viewBox="0 0 800 600" width="800" height="600">
  <!-- Water -->
  <rect x="0" y="400" width="800" height="200" fill="#0066cc" opacity="0.7"/>
  <path d="M0,400 Q200,380 400,400 T800,390 L800,400 L0,400 Z" fill="#0066cc" opacity="0.5"/>
  
  <!-- Ship hull -->
  <path d="M150,350 L600,350 C650,350 670,380 670,390 L670,400 L100,400 L100,390 C100,380 120,350 150,350 Z" fill="#333" stroke="#222" stroke-width="3"/>
  
  <!-- Ship deck -->
  <rect x="170" y="330" width="410" height="20" fill="#444" stroke="#333" stroke-width="2"/>
  
  <!-- Ship superstructure -->
  <rect x="520" y="280" width="60" height="50" fill="#555" stroke="#444" stroke-width="2"/>
  <rect x="530" y="250" width="40" height="30" fill="#555" stroke="#444" stroke-width="2"/>
  
  <!-- Storage tanks -->
  <rect x="200" y="335" width="300" height="5" fill="#666" stroke="#555" stroke-width="1"/>
  <line x1="250" y1="335" x2="250" y2="340" stroke="#555" stroke-width="1"/>
  <line x1="300" y1="335" x2="300" y2="340" stroke="#555" stroke-width="1"/>
  <line x1="350" y1="335" x2="350" y2="340" stroke="#555" stroke-width="1"/>
  <line x1="400" y1="335" x2="400" y2="340" stroke="#555" stroke-width="1"/>
  <line x1="450" y1="335" x2="450" y2="340" stroke="#555" stroke-width="1"/>

  <!-- Crane -->
  <rect x="180" y="290" width="10" height="40" fill="#777" stroke="#666" stroke-width="1"/>
  <path d="M175,290 L195,290 L190,280 L180,280 Z" fill="#777" stroke="#666" stroke-width="1"/>
  <line x1="185" y1="280" x2="185" y2="260" stroke="#777" stroke-width="2"/>
  <line x1="185" y1="260" x2="210" y2="260" stroke="#777" stroke-width="2"/>
  <line x1="185" y1="270" x2="200" y2="270" stroke="#777" stroke-width="1"/>
  
  <!-- Windows on superstructure -->
  <rect x="530" y="290" width="10" height="10" fill="#88ccff" stroke="#444" stroke-width="1"/>
  <rect x="550" y="290" width="10" height="10" fill="#88ccff" stroke="#444" stroke-width="1"/>
  <rect x="535" y="260" width="10" height="10" fill="#88ccff" stroke="#444" stroke-width="1"/>
  <rect x="555" y="260" width="10" height="10" fill="#88ccff" stroke="#444" stroke-width="1"/>
  
  <!-- Wave effects -->
  <path d="M100,400 Q150,405 200,395 T300,400 T400,390 T500,400 T600,395 T670,400" fill="none" stroke="#ffffff" stroke-width="2" opacity="0.3"/>
  
  <!-- Sun and sky glow -->
  <circle cx="700" cy="150" r="50" fill="#ff9933" opacity="0.8"/>
  <circle cx="700" cy="150" r="70" fill="#ffcc66" opacity="0.3"/>
  <circle cx="700" cy="150" r="90" fill="#ffcc99" opacity="0.2"/>
  
  <!-- Reflection in water -->
  <path d="M670,400 C670,410 650,420 600,420 L150,420 C120,420 100,410 100,400" fill="#333" opacity="0.2"/>
  
  <!-- Additional water details -->
  <path d="M0,450 Q100,440 200,450 T400,440 T600,450 T800,440" fill="none" stroke="#ffffff" stroke-width="1" opacity="0.2"/>
  <path d="M0,470 Q150,460 300,470 T600,460 T800,470" fill="none" stroke="#ffffff" stroke-width="1" opacity="0.2"/>
</svg>