<?xml version="1.0" encoding="UTF-8"?>
<svg xmlns="http://www.w3.org/2000/svg" viewBox="0 0 800 600" width="800" height="600">
  <!-- Sky gradient background -->
  <defs>
    <linearGradient id="skyGradient" x1="0%" y1="0%" x2="0%" y2="100%">
      <stop offset="0%" style="stop-color:#1a237e;stop-opacity:1" />
      <stop offset="40%" style="stop-color:#283593;stop-opacity:1" />
      <stop offset="100%" style="stop-color:#3949ab;stop-opacity:1" />
    </linearGradient>
  </defs>
  <rect x="0" y="0" width="800" height="600" fill="url(#skyGradient)"/>
  
  <!-- Ground -->
  <rect x="0" y="450" width="800" height="150" fill="#1b5e20"/>
  
  <!-- Refinery base -->
  <rect x="150" y="400" width="500" height="50" fill="#424242" stroke="#212121" stroke-width="2"/>
  
  <!-- Storage tanks -->
  <circle cx="200" cy="350" r="40" fill="#757575" stroke="#424242" stroke-width="2"/>
  <rect x="160" y="350" width="80" height="50" fill="#757575" stroke="#424242" stroke-width="2"/>
  
  <circle cx="300" cy="350" r="40" fill="#757575" stroke="#424242" stroke-width="2"/>
  <rect x="260" y="350" width="80" height="50" fill="#757575" stroke="#424242" stroke-width="2"/>
  
  <circle cx="590" cy="350" r="40" fill="#757575" stroke="#424242" stroke-width="2"/>
  <rect x="550" y="350" width="80" height="50" fill="#757575" stroke="#424242" stroke-width="2"/>
  
  <!-- Distillation columns -->
  <rect x="380" y="200" width="30" height="200" fill="#9e9e9e" stroke="#757575" stroke-width="2"/>
  <rect x="375" y="190" width="40" height="10" fill="#9e9e9e" stroke="#757575" stroke-width="2"/>
  
  <rect x="420" y="180" width="30" height="220" fill="#9e9e9e" stroke="#757575" stroke-width="2"/>
  <rect x="415" y="170" width="40" height="10" fill="#9e9e9e" stroke="#757575" stroke-width="2"/>
  
  <rect x="460" y="150" width="30" height="250" fill="#9e9e9e" stroke="#757575" stroke-width="2"/>
  <rect x="455" y="140" width="40" height="10" fill="#9e9e9e" stroke="#757575" stroke-width="2"/>
  
  <!-- Connecting pipes -->
  <path d="M380,250 H360 V300 H340 V350 H320" fill="none" stroke="#bdbdbd" stroke-width="4"/>
  <path d="M410,250 H430 V280 H450 V320 H470 V350 H490 V380 H510" fill="none" stroke="#bdbdbd" stroke-width="4"/>
  <path d="M490,300 H470 V320 H450 V340 H430 V370 H410" fill="none" stroke="#bdbdbd" stroke-width="4"/>
  <path d="M380,330 H360 V350 H340 V380 H320" fill="none" stroke="#bdbdbd" stroke-width="4"/>
  
  <!-- Flare stack -->
  <rect x="550" y="120" width="15" height="230" fill="#757575" stroke="#424242" stroke-width="2"/>
  <polygon points="550,120 565,120 560,90 555,90" fill="#757575" stroke="#424242" stroke-width="2"/>
  
  <!-- Flames -->
  <path d="M555,85 Q565,70 555,60 Q545,70 555,85" fill="#ff9800" stroke="#f57c00" stroke-width="1">
    <animate attributeName="d" values="M555,85 Q565,70 555,60 Q545,70 555,85; M555,85 Q570,65 555,50 Q540,65 555,85; M555,85 Q565,70 555,60 Q545,70 555,85" dur="2s" repeatCount="indefinite"/>
  </path>
  <path d="M555,85 Q570,65 555,50 Q540,65 555,85" fill="#ff5722" stroke="#e64a19" stroke-width="1" opacity="0.7">
    <animate attributeName="d" values="M555,85 Q570,65 555,50 Q540,65 555,85; M555,85 Q575,60 555,40 Q535,60 555,85; M555,85 Q570,65 555,50 Q540,65 555,85" dur="1.5s" repeatCount="indefinite"/>
  </path>
  
  <!-- Small buildings -->
  <rect x="170" y="420" width="40" height="30" fill="#616161" stroke="#424242" stroke-width="1"/>
  <rect x="250" y="420" width="60" height="30" fill="#616161" stroke="#424242" stroke-width="1"/>
  <rect x="500" y="420" width="70" height="30" fill="#616161" stroke="#424242" stroke-width="1"/>
  
  <!-- Windows in buildings -->
  <rect x="177" y="425" width="8" height="10" fill="#ffeb3b" opacity="0.8"/>
  <rect x="195" y="425" width="8" height="10" fill="#ffeb3b" opacity="0.8"/>
  <rect x="177" y="440" width="8" height="5" fill="#ffeb3b" opacity="0.8"/>
  <rect x="195" y="440" width="8" height="5" fill="#ffeb3b" opacity="0.8"/>
  
  <rect x="257" y="425" width="8" height="10" fill="#ffeb3b" opacity="0.8"/>
  <rect x="272" y="425" width="8" height="10" fill="#ffeb3b" opacity="0.8"/>
  <rect x="287" y="425" width="8" height="10" fill="#ffeb3b" opacity="0.8"/>
  <rect x="257" y="440" width="8" height="5" fill="#ffeb3b" opacity="0.8"/>
  <rect x="272" y="440" width="8" height="5" fill="#ffeb3b" opacity="0.8"/>
  <rect x="287" y="440" width="8" height="5" fill="#ffeb3b" opacity="0.8"/>
  
  <rect x="507" y="425" width="8" height="10" fill="#ffeb3b" opacity="0.8"/>
  <rect x="522" y="425" width="8" height="10" fill="#ffeb3b" opacity="0.8"/>
  <rect x="537" y="425" width="8" height="10" fill="#ffeb3b" opacity="0.8"/>
  <rect x="552" y="425" width="8" height="10" fill="#ffeb3b" opacity="0.8"/>
  
  <!-- Stars in the sky -->
  <circle cx="100" cy="100" r="1" fill="white" opacity="0.8"/>
  <circle cx="150" cy="70" r="1" fill="white" opacity="0.8"/>
  <circle cx="200" cy="120" r="1" fill="white" opacity="0.8"/>
  <circle cx="300" cy="80" r="1" fill="white" opacity="0.8"/>
  <circle cx="350" cy="60" r="1" fill="white" opacity="0.8"/>
  <circle cx="400" cy="90" r="1" fill="white" opacity="0.8"/>
  <circle cx="650" cy="110" r="1" fill="white" opacity="0.8"/>
  <circle cx="700" cy="70" r="1" fill="white" opacity="0.8"/>
  <circle cx="750" cy="120" r="1" fill="white" opacity="0.8"/>
  
  <!-- Moon -->
  <circle cx="700" cy="100" r="30" fill="#ffecb3" opacity="0.9"/>
  <circle cx="685" cy="90" r="8" fill="#3949ab" opacity="0.4"/>
  <circle cx="710" cy="115" r="5" fill="#3949ab" opacity="0.4"/>
  <circle cx="720" cy="85" r="7" fill="#3949ab" opacity="0.4"/>
</svg>