<?xml version="1.0" encoding="UTF-8"?>
<svg width="24px" height="24px" viewBox="0 0 24 24" version="1.1" xmlns="http://www.w3.org/2000/svg">
    <g stroke="none" stroke-width="1" fill="none" fill-rule="evenodd">
        <path d="M21,9 L12,2 L3,9 L3,11 L6,11 L6,19 L18,19 L18,11 L21,11 L21,9 Z M10,11 L14,11 L14,15 L10,15 L10,11 Z M10,17 L8,17 L8,11 L10,11 L10,17 Z M16,17 L14,17 L14,11 L16,11 L16,17 Z" fill="#000000"></path>
        <path d="M12,3.67 L17.25,8 L6.75,8 L12,3.67 Z" fill="#000000"></path>
    </g>
</svg>