<?xml version="1.0" encoding="UTF-8"?>
<svg width="24" height="24" viewBox="0 0 24 24" xmlns="http://www.w3.org/2000/svg">
  <circle cx="12" cy="12" r="10" fill="#8e24aa" fill-opacity="0.8" stroke="#000" stroke-width="1"/>
  <path fill="#ffffff" d="M3,13A9,9 0 0,0 12,22A9,9 0 0,0 21,13H3M12,4.26L15,6V10H9V6L12,4.26M12,2C11.73,2 11.45,2.09 11.24,2.23L4.24,7.23C3.95,7.43 3.76,7.75 3.75,8.09C3.75,8.44 3.95,8.75 4.24,8.95L7,10.86V13H17V10.86L19.76,8.95C20.05,8.75 20.25,8.44 20.25,8.09C20.24,7.75 20.05,7.43 19.76,7.23L12.76,2.23C12.55,2.09 12.27,2 12,2Z"/>
</svg>