<?xml version="1.0" encoding="UTF-8"?>
<svg width="24" height="24" viewBox="0 0 24 24" xmlns="http://www.w3.org/2000/svg">
  <circle cx="12" cy="12" r="10" fill="#2196f3" fill-opacity="0.8" stroke="#000" stroke-width="1"/>
  <path fill="#ffffff" d="M16,12A4,4 0 0,1 12,16A4,4 0 0,1 8,12A4,4 0 0,1 12,8A4,4 0 0,1 16,12M13,4.26V6.34C12.16,6.42 11.5,6.7 10.9,7.1L9.67,6.34L11.29,7.23C10.5,7.8 10.1,8.5 10.07,9.5H8V10.5H10.07C10.18,11.5 10.5,12 11.29,12.7L9.67,13.06L11.53,12.31C12.16,12.54 12.8,12.6 13,12.67V14.74C13,14.74 12.92,15 12.92,14.3C12.92,13.6 13.5,13 12.5,12C11.5,11 11.12,11 11,10C10.88,9 10.29,8.31 10.29,8.31L11.8,7C11.8,7 12.3,6.5 13,6.34V4.26Z"/>
</svg>