<?xml version="1.0" encoding="UTF-8"?>
<svg width="24px" height="24px" viewBox="0 0 24 24" version="1.1" xmlns="http://www.w3.org/2000/svg">
  <g stroke="none" stroke-width="1" fill="none" fill-rule="evenodd">
    <path d="M19,9h-1.5V6c0-0.8-0.7-1.5-1.5-1.5h-2c-0.8,0-1.5,0.7-1.5,1.5v3H11V3c0-0.8-0.7-1.5-1.5-1.5h-2C6.7,1.5,6,2.2,6,3v6 H4.5c-0.8,0-1.5,0.7-1.5,1.5V12h0v7.5c0,0.8,0.7,1.5,1.5,1.5h15c0.8,0,1.5-0.7,1.5-1.5V12v-1.5C20.5,9.7,19.8,9,19,9z" fill="#F44336"/>
    <path d="M18,21H6v-8h12V21z M13,6.5h3V9h-3V6.5z M8,3.5h3v7H8V3.5z" fill="#FFFFFF"/>
    <path d="M10,14h4v2h-4V14z M10,17h4v2h-4V17z" fill="#FFFFFF"/>
  </g>
</svg>