<?xml version="1.0" encoding="UTF-8"?>
<svg width="24px" height="24px" viewBox="0 0 24 24" version="1.1" xmlns="http://www.w3.org/2000/svg">
  <g stroke="none" stroke-width="1" fill="none" fill-rule="evenodd">
    <path d="M20,14.5 L18,9 L15,9 L15,5 C15,4.44771525 14.5522847,4 14,4 L10,4 C9.44771525,4 9,4.44771525 9,5 L9,9 L6,9 L4,14.5 L2,14.5 L2,16.5 L4,16.5 C4,18.9852814 6.01471863,21 8.5,21 C10.9852814,21 13,18.9852814 13,16.5 C13,16.5 11,16.5 11,16.5 C11,17.8807119 9.88071187,19 8.5,19 C7.11928813,19 6,17.8807119 6,16.5 L18,16.5 C18,18.9852814 20.0147186,21 22.5,21 C24.9852814,21 27,18.9852814 27,16.5 L22,16.5 C22,17.8807119 20.8807119,19 19.5,19 C18.1192881,19 17,17.8807119 17,16.5 L20,16.5 L22,16.5 L22,14.5 L20,14.5 Z" fill="#2196F3" fill-rule="nonzero"></path>
    <circle fill="#FFFFFF" cx="8.5" cy="16.5" r="1.5"></circle>
    <circle fill="#FFFFFF" cx="19.5" cy="16.5" r="1.5"></circle>
  </g>
</svg>